# xmcd
#
# Track frame offsets:
#	150
#	21227
#	39454
#	59707
#	82209
#	95335
#	117262
#	140064
#	161456
#
# Disc length: 2450 seconds
#
# Revision: 1
# Processed by: cddbd v1.5.2PL0 Copyright (c) Steve Scherf et al.
# Submitted via: audiograbber 1.83.01
#
DISCID=7c099009
DTITLE=Hypnosis - The Synthetic Light Of Hope
DYEAR=2009
DGENRE=Death Metal
TTITLE0=Blood Tears
TTITLE1=The Day We Failed
TTITLE2=The Trouble Waters
TTITLE3=The Synthetic Light Of Hope
TTITLE4=Wasted Land
TTITLE5=An Ordinary Day
TTITLE6=My Deepest Solitude
TTITLE7=Dead Is The Sun
TTITLE8=[Kill Me] When I Dream
EXTD=
EXTT0=
EXTT1=
EXTT2=
EXTT3=
EXTT4=
EXTT5=
EXTT6=
EXTT7=
EXTT8=
PLAYORDER=
